<svg
  class="fill-current"
  viewBox="0 0 1296.63 288.03"
  xmlns="http://www.w3.org/2000/svg"
  width="800"
  height="800"
><path
    fill="#c82333"
    d="M58.05 175.34H0V3.49h65.19l41.47 56.43 39.85-56.43h63.35v171.85h-58.05v-44.23l1.84-47.69-45.65 59.9h-5.76l-46-60.13 1.84 47.92zM343 157.6h-55.06l-6 17.74H220L287.48 3.49H346l67.72 171.85h-65zm-13.6-42.57L316 73.75l-13.78 41.28zm156.17 8.93h-2.07v51.38h-59.66V3.49h61.27c33.41 0 80.86 2.3 80.86 63.11 0 18.43-10.6 32.25-24.88 41.7l41.7 67h-70.26zm-2.07-71.41v34.1h5.07c12 0 19.35-4.15 19.35-18 0-14.29-10.6-16.13-19.35-16.13zM592.91 3.49H653c51.37 0 97 20 97 85.69-.23 66.81-43.08 86.16-94.68 86.16h-62.41zm59.9 117.25h6.45c17.5 0 30.86-9.21 30.86-31.56 0-21.88-13.36-30.87-30.86-31.1h-6.45zM765.21 3.49H879v54.13h-53.9v10.41h47.69v42.61H825.1v10.6h55.75v54.14H765.21zM958 103.46v71.88h-59.88V3.49h56.44l55.51 70.54V3.49H1070v171.85h-55.29zm150.66-99.97h60.12l-35.47 78.09h-43.78zm180.82 52.06c-10.13-6.45-24.88-10.14-38.93-10.14-5.06 0-9.9 1.84-9.9 5.3 0 4.84 7.83 10.37 17.73 18.89 30.41 26 38.25 35.94 38.25 58.28 0 36.86-37.32 50-70 50.22-18.89 0-36.16-2.3-48.14-8.75v-48.38c14.74 7.37 26.49 11.75 41.69 11.75 6.69 0 14.06-2.08 14.06-6 0-5.53-10.83-12.9-25.11-24.19-28.11-21.65-34.33-32.71-34.33-53 0-25.8 24-49.53 69.11-49.53 13.82 0 31.79.92 45.61 8.06zM100.4 273.03h10.79c.83 4.18 3.34 6.42 8.92 6.42 3.34 0 5.33-1.54 5.33-4s-4.11-3.27-9-4.43c-6.87-1.6-15.09-4.17-15.09-13 0-8.61 7.58-14.58 18.3-14.58 11.62 0 17.65 5.84 18.29 14.7H127.3c-.71-4.17-2.7-6.29-7.77-6.29-3.14 0-5.13 1.61-5.13 4.05 0 2.89 4.56 3.53 9.75 4.68 6.75 1.54 14.45 3.92 14.45 12.78s-7 14.44-18.36 14.44c-12.46.1-19-6.7-19.84-14.77zm69.15-3.23v-25.36h13.16v25.59c0 5.9 2 8.28 7.12 8.28s6.87-2.19 6.87-7.77v-26.1H207v26.13c0 11.81-6 17.4-18 17.4-13.74 0-19.45-5.85-19.45-18.17zM258 244.44c14.31 0 18 4.82 18 11.36 0 6.29-4.3 10-10.66 11.24 7.32 1.28 10 6.16 11.24 15 .25 1.54.45 4.1.51 5.07h-13.24c0-.13-.06-1.54-.13-2.63-.7-7.58-2.69-12.65-8.41-12.72h-2.82v15.27h-12.91v-42.59zm-5.52 20.87l3-.33c5.27-.06 8.09-2.82 8.09-6.8 0-3.79-2-5.84-7.44-5.84h-3.6zm74.42-20.87c12.58 0 18 4.43 18 14 0 8.79-6 14.95-19.13 14.95h-3.37v13.64h-13.16v-42.59zm-4.5 21.44h3c5.71-.25 7.06-3 7.06-7.44 0-4.24-2-6.1-7.06-6.1h-3zm67.02 12.07h16.76v9.08h-29.92v-42.59h13.16zm45.97-8.15v-25.36h13.17v25.59c0 5.9 2.05 8.28 7.12 8.28s6.87-2.19 6.87-7.77v-26.1h10.34v26.13c0 11.81-6 17.4-18 17.4-13.78 0-19.5-5.85-19.5-18.17zm68.06 3.23h10.78c.83 4.18 3.34 6.42 8.92 6.42 3.34 0 5.33-1.54 5.33-4s-4.11-3.27-9.05-4.43c-6.87-1.6-15.08-4.17-15.08-13 0-8.61 7.57-14.58 18.29-14.58 11.62 0 17.65 5.84 18.3 14.7h-10.6c-.7-4.17-2.69-6.29-7.77-6.29-3.14 0-5.13 1.61-5.13 4.05 0 2.89 4.56 3.53 9.76 4.68 6.74 1.54 14.44 3.92 14.44 12.78s-7 14.44-18.36 14.44c-12.45.1-19-6.7-19.83-14.77zm107.98 2.16c0-6.55 4.3-11 10.85-13.16a13.84 13.84 0 0 1-2.06-6.93c0-6.94 5.65-11.88 14.19-11.88 6.93 0 12.2 4.49 12.2 10.72 0 5.46-3.66 8.93-9.44 10.66l5.46 6.23a46.53 46.53 0 0 0 5.13-11.5h8.86a60.57 60.57 0 0 1-8.62 17.4c3.53 3.85 7.44 8.15 9.3 10.34h-14.1l-2.82-3a25 25 0 0 1-13.87 4c-9.51-.04-15.08-5.75-15.08-12.88zm14.44-8.34a7.32 7.32 0 0 0-3.66 6.35c0 3.6 2.57 6.68 7.39 6.68a11.16 11.16 0 0 0 5.71-1.61c-2.57-2.82-5-5.71-6.93-8.15a25.78 25.78 0 0 1-2.51-3.27zm7.58-7.19c3.85-.39 5.58-2.7 5.58-5.14a3.4 3.4 0 0 0-3.06-3.71h-.41c-2.24 0-3.72 1.54-3.72 4a8.93 8.93 0 0 0 1.61 4.85zm92.38 13.37h10.78c.84 4.18 3.34 6.42 8.93 6.42 3.34 0 5.33-1.54 5.33-4s-4.11-3.27-9.06-4.43c-6.86-1.6-15.08-4.17-15.08-13 0-8.61 7.57-14.58 18.3-14.58 11.61 0 17.65 5.84 18.29 14.7h-10.59c-.71-4.17-2.7-6.29-7.77-6.29-3.15 0-5.14 1.61-5.14 4.05 0 2.89 4.56 3.53 9.76 4.68 6.74 1.54 14.45 3.92 14.45 12.78s-7 14.44-18.36 14.44c-12.46.1-19-6.7-19.84-14.77zm80.64-28.59h14.44l14.51 42.59h-13.8l-3.15-9.82h-13.16l-3.14 9.82h-10.6zm1.15 25.17h8.8l-4.17-13.42zm71.71 8.34h16.76v9.08h-29.92v-42.59h13.16zm50.98-33.51l9.62 27.93 9.18-27.93h10.66l-15.28 42.59h-12.71l-15.21-42.63zm66.12 0h14.44l14.51 42.59h-13.8l-3.15-9.82h-13.16l-3.14 9.82h-10.6zm1.15 25.17h8.8l-4.18-13.42zm84.61 12.26c-2 3.72-5.77 6.16-11.61 6.16-11.43 0-18.68-8.6-18.68-21.44 0-14.51 8.41-23.05 22-23.05 11.82 0 18.11 6.36 19.39 16.05H1081c-.58-4-3-6.1-7.06-6.1-5.78 0-8.8 4.56-8.8 13v.9c0 7.71 3.41 11.75 9.18 11.75 4.11 0 7.26-2.18 7.58-6.1h-7v-8.15h18.75v22.14h-11.5zm69.02-11.69H1139v7.58h21v9.27h-33.89v-42.59h33.38v9.12H1139v7.32h12.2z"
  /></svg>
