<svg width="17" height="17" viewBox="0 0 17 17" fill="none" xmlns="http://www.w3.org/2000/svg">
    <path d="M11.0061 1.83331H5.41948C2.99281 1.83331 1.54614 3.27998 1.54614 5.70665V11.2866C1.54614 13.72 2.99281 15.1666 5.41948 15.1666H10.9995C13.4261 15.1666 14.8728 13.72 14.8728 11.2933V5.70665C14.8795 3.27998 13.4328 1.83331 11.0061 1.83331ZM7.51281 12.1733C7.31948 12.3666 6.95281 12.5533 6.68614 12.5933L5.04614 12.8266C4.98614 12.8333 4.92614 12.84 4.86614 12.84C4.59281 12.84 4.33948 12.7466 4.15948 12.5666C3.93948 12.3466 3.84614 12.0266 3.89948 11.6733L4.13281 10.0333C4.17281 9.75998 4.35281 9.39998 4.55281 9.20665L7.52614 6.23331C7.57948 6.37331 7.63281 6.51331 7.70614 6.67331C7.77281 6.81331 7.84614 6.95998 7.92614 7.09331C7.99281 7.20665 8.06614 7.31331 8.12614 7.39331C8.19948 7.50665 8.28614 7.61331 8.33948 7.67331C8.37281 7.71998 8.39948 7.75331 8.41281 7.76665C8.57948 7.96665 8.77281 8.15331 8.93948 8.29331C8.98614 8.33998 9.01281 8.36665 9.02614 8.37331C9.12614 8.45331 9.22614 8.53331 9.31281 8.59331C9.41948 8.67331 9.52614 8.74665 9.63948 8.80665C9.77281 8.88665 9.91948 8.95998 10.0661 9.03331C10.2195 9.09998 10.3595 9.15998 10.4995 9.20665L7.51281 12.1733ZM11.7928 7.89331L11.1795 8.51331C11.1395 8.55331 11.0861 8.57331 11.0328 8.57331C11.0128 8.57331 10.9861 8.57331 10.9728 8.56665C9.61948 8.17998 8.53948 7.09998 8.15281 5.74665C8.13281 5.67331 8.15281 5.59331 8.20614 5.54665L8.82614 4.92665C9.83948 3.91331 10.8061 3.93331 11.7995 4.92665C12.3061 5.43331 12.5528 5.91998 12.5528 6.42665C12.5461 6.90665 12.2995 7.38665 11.7928 7.89331Z"
          fill="#171717"/>
</svg>
