<svg width="17" height="17" viewBox="0 0 17 17" fill="none" xmlns="http://www.w3.org/2000/svg">
    <path fill-rule="evenodd" clip-rule="evenodd" d="M6.5459 6.16665C6.5459 6.90303 5.94895 7.49998 5.21257 7.49998C4.47619 7.49998 3.87923 6.90303 3.87923 6.16665C3.87923 5.43027 4.47619 4.83331 5.21257 4.83331C5.94895 4.83331 6.5459 5.43027 6.5459 6.16665ZM5.21257 8.49998C6.32961 8.49998 7.26331 7.71504 7.4922 6.66664L14.8792 6.66665L14.8792 5.66665L7.4922 5.66664C7.26331 4.61825 6.3296 3.83331 5.21257 3.83331C4.09553 3.83331 3.16182 4.61825 2.93293 5.66665H1.5459V6.66665H2.93293C3.16182 7.71504 4.09553 8.49998 5.21257 8.49998ZM8.93293 11L1.5459 11V12L8.93293 12C9.16182 13.0484 10.0955 13.8333 11.2126 13.8333C12.3296 13.8333 13.2633 13.0484 13.4922 12H14.8792V11H13.4922C13.2633 9.95159 12.3296 9.16665 11.2126 9.16665C10.0955 9.16665 9.16182 9.95158 8.93293 11ZM12.5459 11.5C12.5459 12.2364 11.9489 12.8333 11.2126 12.8333C10.4762 12.8333 9.87923 12.2364 9.87923 11.5C9.87923 10.7636 10.4762 10.1666 11.2126 10.1666C11.9489 10.1666 12.5459 10.7636 12.5459 11.5Z" fill="#0E1117"/>
</svg>
