<svg width="17" height="17" viewBox="0 0 17 17" fill="none" xmlns="http://www.w3.org/2000/svg">
<path d="M8.21289 12.0666C8.81304 12.0666 9.29955 11.5801 9.29955 10.98C9.29955 10.3798 8.81304 9.89331 8.21289 9.89331C7.61274 9.89331 7.12622 10.3798 7.12622 10.98C7.12622 11.5801 7.61274 12.0666 8.21289 12.0666Z" fill="#171717"/>
<path d="M12.3995 6.85331V6.01998C12.3995 4.21998 11.9661 1.83331 8.21281 1.83331C4.45948 1.83331 4.02614 4.21998 4.02614 6.01998V6.85331C2.15948 7.08665 1.54614 8.03331 1.54614 10.36V11.6C1.54614 14.3333 2.37948 15.1666 5.11281 15.1666H11.3128C14.0461 15.1666 14.8795 14.3333 14.8795 11.6V10.36C14.8795 8.03331 14.2661 7.08665 12.3995 6.85331ZM8.21281 12.9933C7.09948 12.9933 6.19948 12.0866 6.19948 10.98C6.19948 9.86665 7.10614 8.96665 8.21281 8.96665C9.31948 8.96665 10.2261 9.87331 10.2261 10.98C10.2261 12.0933 9.32614 12.9933 8.21281 12.9933ZM5.11281 6.79331C5.05948 6.79331 5.01281 6.79331 4.95948 6.79331V6.01998C4.95948 4.06665 5.51281 2.76665 8.21281 2.76665C10.9128 2.76665 11.4661 4.06665 11.4661 6.01998V6.79998C11.4128 6.79998 11.3661 6.79998 11.3128 6.79998H5.11281V6.79331Z" fill="#171717"/>
</svg>
