<svg width="16" height="16" viewBox="0 0 16 16" fill="none" xmlns="http://www.w3.org/2000/svg">
<path fill-rule="evenodd" clip-rule="evenodd" d="M9.66674 7.33333V4.66667C9.66674 3.74619 8.92055 3 8.00008 3C7.0796 3 6.33341 3.74619 6.33341 4.66667V7.33333C6.33341 8.25381 7.0796 9 8.00008 9C8.92055 9 9.66674 8.25381 9.66674 7.33333ZM8.00008 2C6.52732 2 5.33341 3.19391 5.33341 4.66667V7.33333C5.33341 8.80609 6.52732 10 8.00008 10C9.47283 10 10.6667 8.80609 10.6667 7.33333V4.66667C10.6667 3.19391 9.47283 2 8.00008 2ZM5.39127 10.2506C4.60797 9.76151 3.97468 9.06167 3.56331 8.22895L2.66675 8.67186C3.16009 9.67051 3.92015 10.511 4.86162 11.0988C5.66273 11.5991 6.5682 11.8996 7.50294 11.9788V13H6.00008V14H10.0001V13H8.50294V11.9789C9.43333 11.9 10.3348 11.6019 11.1334 11.1056C12.0761 10.5198 12.8379 9.681 13.3334 8.68342L12.4378 8.23859C12.0247 9.0704 11.3899 9.76887 10.6055 10.2563C9.82126 10.7437 8.91818 11.001 7.99761 11C7.07705 10.999 6.17451 10.7397 5.39127 10.2506Z" fill="#0E1117"/>
</svg>
