<?xml version="1.0" encoding="UTF-8" standalone="no"?><!DOCTYPE svg PUBLIC "-//W3C//DTD SVG 1.1//EN" "http://www.w3.org/Graphics/SVG/1.1/DTD/svg11.dtd"><svg width="100%" height="100%" viewBox="0 0 4552 4552" version="1.1" xmlns="http://www.w3.org/2000/svg" xmlns:xlink="http://www.w3.org/1999/xlink" xml:space="preserve" xmlns:serif="http://www.serif.com/" style="fill-rule:evenodd;clip-rule:evenodd;stroke-linejoin:round;stroke-miterlimit:2;"><g id="surface1"><path d="M3659.38,0l-2763.71,0c-134.638,0 -243.856,109.218 -243.856,243.856l0,4064.29c0,134.638 109.218,243.856 243.856,243.856l2763.71,0c134.648,0 243.866,-109.218 243.866,-243.856l0,-4064.29c0,-134.638 -109.218,-243.856 -243.866,-243.856Zm-2032.13,4226.86l-650.289,-0l0,-650.289l650.289,-0l0,650.289Zm0,-975.423l-650.289,0l0,-650.289l650.289,0l0,650.289Zm0,-975.433l-650.289,0l0,-650.289l650.289,0l0,650.289Zm975.423,1950.86l-650.289,-0l0,-650.289l650.289,-0l-0,650.289Zm-0,-975.423l-650.289,0l0,-650.289l650.289,0l-0,650.289Zm-0,-975.433l-650.289,0l0,-650.289l650.289,0l-0,650.289Zm975.433,1950.86l-650.289,-0l0,-1625.71l650.289,0l-0,1625.71Zm-0,-1950.86l-650.289,0l0,-650.289l650.289,0l-0,650.289Zm-0,-975.433l-2601.14,-0l0,-894.134l2601.14,0l-0,894.134Z" style="fill-rule:nonzero;"/><rect x="3171.66" y="894.144" width="162.577" height="162.567" style="fill-rule:nonzero;"/><rect x="2846.52" y="894.144" width="162.577" height="162.567" style="fill-rule:nonzero;"/><rect x="2521.38" y="894.144" width="162.577" height="162.567" style="fill-rule:nonzero;"/></g></svg>